<?xml version="1.0"?>
<svg xmlns="http://www.w3.org/2000/svg" xmlns:xlink="http://www.w3.org/1999/xlink" xmlns:svgjs="http://svgjs.com/svgjs" version="1.1" width="512" height="512" x="0" y="0" viewBox="0 0 512 512" style="enable-background:new 0 0 512 512" xml:space="preserve" class=""><g><g xmlns="http://www.w3.org/2000/svg"><path d="m495.64 281.734-36.69-20.78c-4.05-2.29-7.68-5.19-10.78-8.58-4.02-4.39-7.14-9.59-9.13-15.3l-27.99-80.5c-3.92-11.28-14.55-18.83-26.48-18.83h-361.09c-8.83 0-15.98 7.15-15.98 15.97v138.02l13.794 30h466.794l15.612-30c-1.29-4.17-4.14-7.78-8.06-10z" fill="#f6f1f1" data-original="#f6f1f1" style=""/><path d="m387.386 156.574 27.99 80.5c1.99 5.71 5.11 10.91 9.13 15.3 3.1 3.39 6.73 6.29 10.78 8.58l36.69 20.78c3.92 2.22 6.77 5.83 8.06 10 .53 1.66.8 3.41.8 5.2v24.8h7.253l15.612-30c-1.29-4.17-4.14-7.78-8.06-10l-36.69-20.78c-4.05-2.29-7.68-5.19-10.78-8.58-4.02-4.39-7.14-9.59-9.13-15.3l-27.99-80.5c-3.92-11.28-14.55-18.83-26.48-18.83h-23.664c11.929 0 22.559 7.55 26.479 18.83z" fill="#eadfda" data-original="#eadfda" style="" class=""/><path d="m504.5 296.934v41.58c0 9.65-7.82 17.47-17.46 17.47h-463.56c-8.83 0-15.98-7.16-15.98-15.98v-48.27h496.2c.53 1.66.8 3.41.8 5.2z" fill="#4a74c9" data-original="#da4a54" style="" class=""/><path d="m503.7 291.734h-23.664c.53 1.66.8 3.41.8 5.2v41.58c0 9.65-7.82 17.47-17.46 17.47h23.664c9.64 0 17.46-7.82 17.46-17.47v-41.58c0-1.79-.27-3.54-.8-5.2z" fill="#4a74c9" data-original="#d82e3d" style="" class=""/><path d="m448.17 252.374h-113.47c-8.01 0-14.5-6.5-14.5-14.51v-100.12h64.37c11.93 0 22.56 7.55 26.48 18.83l27.99 80.5c1.99 5.71 5.11 10.91 9.13 15.3z" fill="#b1e4f9" data-original="#b1e4f9" style="" class=""/><path d="m439.04 237.074-27.99-80.5c-3.92-11.28-14.55-18.83-26.48-18.83h-23.664c11.93 0 22.56 7.55 26.48 18.83l27.99 80.5c1.99 5.71 5.11 10.91 9.13 15.3h23.664c-4.02-4.39-7.14-9.59-9.13-15.3z" fill="#75cef9" data-original="#75cef9" style="" class=""/><path d="m364.29 252.374h-29.59c-8.01 0-14.5-6.5-14.5-14.51v-57.68h12.99c10.66 0 19.78 7.66 21.62 18.16z" fill="#b8bfcb" data-original="#544f57" style="" class=""/><circle cx="104.726" cy="365.512" fill="#b8bfcb" r="47.354" data-original="#544f57" style="" class=""/><path d="m104.726 318.157c-2.854 0-5.643.267-8.358.75 22.164 3.95 38.996 23.305 38.996 46.604s-16.832 42.654-38.996 46.604c2.715.484 5.505.75 8.358.75 26.153 0 47.354-21.201 47.354-47.354.001-26.153-21.201-47.354-47.354-47.354z" fill="#95a6c9" data-original="#454045" style="" class=""/><circle cx="104.726" cy="365.512" fill="#f6f1f1" r="16.716" data-original="#f6f1f1" style=""/><path d="m104.726 348.795c-2.51 0-4.882.569-7.019 1.56 5.721 2.654 9.698 8.434 9.698 15.156s-3.977 12.502-9.698 15.156c2.136.991 4.508 1.56 7.019 1.56 9.232 0 16.716-7.484 16.716-16.716s-7.484-16.716-16.716-16.716z" fill="#eadfda" data-original="#eadfda" style="" class=""/><circle cx="384.185" cy="365.512" fill="#b8bfcb" r="47.354" data-original="#544f57" style="" class=""/><path d="m384.185 318.157c-2.854 0-5.643.267-8.358.75 22.164 3.95 38.996 23.305 38.996 46.604s-16.832 42.654-38.996 46.604c2.715.484 5.505.75 8.358.75 26.153 0 47.354-21.201 47.354-47.354.001-26.153-21.2-47.354-47.354-47.354z" fill="#95a6c9" data-original="#454045" style="" class=""/><circle cx="384.185" cy="365.512" fill="#f6f1f1" r="16.716" data-original="#f6f1f1" style=""/><path d="m384.185 348.795c-2.51 0-4.882.569-7.019 1.56 5.721 2.654 9.698 8.434 9.698 15.156s-3.977 12.502-9.698 15.156c2.136.991 4.508 1.56 7.019 1.56 9.232 0 16.716-7.484 16.716-16.716s-7.483-16.716-16.716-16.716z" fill="#eadfda" data-original="#eadfda" style="" class=""/><g><path d="m211.15 196.873h-16.464c-.572 0-1.037-.464-1.037-1.037v-16.464c0-3.966-3.215-7.18-7.18-7.18h-17.46c-3.966 0-7.18 3.215-7.18 7.18v16.464c0 .572-.464 1.037-1.037 1.037h-16.464c-3.966 0-7.18 3.215-7.18 7.18v17.46c0 3.966 3.215 7.18 7.18 7.18h16.464c.572 0 1.037.464 1.037 1.037v16.464c0 3.966 3.215 7.18 7.18 7.18h17.46c3.966 0 7.18-3.215 7.18-7.18v-16.464c0-.572.464-1.037 1.037-1.037h16.464c3.966 0 7.18-3.215 7.18-7.18v-17.46c0-3.965-3.215-7.18-7.18-7.18z" fill="#4a74c9" data-original="#da4a54" style="" class=""/><g fill="#d82e3d"><path d="m181.231 179.372v16.464c0 .573.464 1.037 1.036 1.037h12.418c-.573 0-1.036-.464-1.036-1.037v-16.464c0-3.966-3.215-7.18-7.18-7.18h-12.418c3.965 0 7.18 3.215 7.18 7.18z" fill="#4a74c9" data-original="#d82e3d" style="" class=""/><path d="m211.15 196.873h-12.418c3.966 0 7.181 3.215 7.181 7.18v17.46c0 3.966-3.215 7.18-7.181 7.18h12.418c3.966 0 7.18-3.215 7.18-7.18v-17.46c0-3.965-3.215-7.18-7.18-7.18z" fill="#4a74c9" data-original="#d82e3d" style="" class=""/><path d="m181.231 229.73v16.464c0 3.966-3.215 7.18-7.181 7.18h12.418c3.966 0 7.181-3.215 7.181-7.18v-16.464c0-.573.464-1.037 1.036-1.037h-12.418c-.572 0-1.036.464-1.036 1.037z" fill="#4a74c9" data-original="#d82e3d" style="" class=""/></g></g><path d="m369.551 137.744h-38.61v-19.305c0-10.662 8.643-19.305 19.305-19.305 10.662 0 19.305 8.643 19.305 19.305z" fill="#4a74c9" data-original="#da4a54" style="" class=""/><path d="m350.245 99.134c-2.836 0-5.521.627-7.947 1.725 6.694 3.031 11.359 9.754 11.359 17.58v19.305h15.893v-19.305c.001-10.662-8.643-19.305-19.305-19.305z" fill="#4a74c9" data-original="#d82e3d" style="" class=""/><g><path d="m80.51 365.512c0 13.353 10.863 24.216 24.217 24.216 13.353 0 24.216-10.863 24.216-24.216 0-13.354-10.863-24.217-24.216-24.217-13.354 0-24.217 10.863-24.217 24.217zm33.432 0c0 5.082-4.134 9.216-9.216 9.216s-9.217-4.134-9.217-9.216 4.135-9.217 9.217-9.217 9.216 4.135 9.216 9.217z" fill="#000000" data-original="#000000" style="" class=""/><path d="m384.186 341.295c-13.354 0-24.217 10.863-24.217 24.217 0 13.353 10.863 24.216 24.217 24.216 13.353 0 24.216-10.863 24.216-24.216-.001-13.354-10.864-24.217-24.216-24.217zm0 33.433c-5.082 0-9.217-4.134-9.217-9.216s4.135-9.217 9.217-9.217 9.216 4.135 9.216 9.217-4.134 9.216-9.216 9.216z" fill="#000000" data-original="#000000" style="" class=""/><path d="m186.469 164.692h-17.46c-8.095 0-14.68 6.585-14.68 14.68v10h-10.001c-8.095 0-14.68 6.585-14.68 14.68v17.46c0 8.095 6.585 14.68 14.68 14.68h10.001v10c0 8.095 6.585 14.681 14.68 14.681h17.46c8.095 0 14.681-6.586 14.681-14.681v-10h10c8.095 0 14.681-6.585 14.681-14.68v-17.46c0-8.095-6.586-14.68-14.681-14.68h-10v-10c-.001-8.094-6.587-14.68-14.681-14.68zm24.361 39.681v16.82h-16.145c-4.707 0-8.536 3.83-8.536 8.537v16.145h-16.82v-16.145c0-4.707-3.83-8.537-8.537-8.537h-16.144v-16.82h16.144c4.707 0 8.537-3.83 8.537-8.537v-16.144h16.82v16.144c0 4.707 3.829 8.537 8.536 8.537z" fill="#000000" data-original="#000000" style="" class=""/><path d="m96.996 227.874h-57.72c-4.143 0-7.5 3.358-7.5 7.5s3.357 7.5 7.5 7.5h57.72c4.143 0 7.5-3.358 7.5-7.5s-3.357-7.5-7.5-7.5z" fill="#000000" data-original="#000000" style="" class=""/><path d="m39.276 252.054c-4.143 0-7.5 3.358-7.5 7.5 0 4.143 3.357 7.5 7.5 7.5h87.72c4.143 0 7.5-3.357 7.5-7.5 0-4.142-3.357-7.5-7.5-7.5z" fill="#000000" data-original="#000000" style="" class=""/><path d="m499.337 275.207-36.695-20.781c-3.342-1.89-6.348-4.283-8.939-7.117-3.377-3.687-5.927-7.961-7.578-12.698l-27.99-80.499c-4.961-14.276-18.449-23.868-33.563-23.868h-7.52v-11.805c0-14.78-12.025-26.805-26.806-26.805s-26.805 12.025-26.805 26.805v11.805c-24.283 0-224.587 0-248.45 0-4.143 0-7.5 3.358-7.5 7.5s3.357 7.5 7.5 7.5h187.042v138.99h-247.033v-130.52c0-4.67 3.805-8.47 8.48-8.47h21.522c4.143 0 7.5-3.358 7.5-7.5s-3.357-7.5-7.5-7.5h-21.522c-12.947 0-23.48 10.529-23.48 23.47v186.29c0 12.946 10.533 23.479 23.48 23.479h26.443c-.025.674-.052 1.348-.052 2.028 0 30.247 24.607 54.854 54.854 54.854 9.073 0 18.069-2.267 26.017-6.556 3.646-1.968 5.006-6.518 3.039-10.162-1.968-3.645-6.518-5.004-10.162-3.039-5.767 3.112-12.3 4.757-18.894 4.757-21.976 0-39.854-17.879-39.854-39.854s17.879-39.854 39.854-39.854 39.854 17.879 39.854 39.854c0 5.811-1.232 11.426-3.664 16.688-1.737 3.761-.097 8.217 3.663 9.954 3.761 1.737 8.217.097 9.954-3.663 3.349-7.249 5.047-14.98 5.047-22.979 0-.68-.027-1.354-.052-2.028h169.853c-.025.674-.052 1.348-.052 2.028 0 30.247 24.607 54.854 54.854 54.854s54.854-24.607 54.854-54.854c0-.68-.027-1.354-.052-2.028h48.052c13.763 0 24.96-11.201 24.96-24.97v-41.58c.004-8.465-4.402-17.047-12.659-21.726zm-95.371-116.17 27.992 80.505c.638 1.829 1.379 3.605 2.205 5.332h-5.406l-19.344-19.344 1.307-1.307c2.929-2.929 2.929-7.678 0-10.606-2.93-2.929-7.678-2.929-10.607 0l-13.221 13.221c-2.929 2.929-2.929 7.678 0 10.606 1.465 1.464 3.385 2.197 5.304 2.197s3.839-.732 5.304-2.197l1.307-1.307 8.737 8.737h-36.955l-8.39-47.825c-2.474-14.118-14.674-24.365-29.008-24.365h-5.49v-27.44h56.87c8.734 0 16.528 5.542 19.395 13.793zm-76.266 28.647h5.49c7.033 0 13.019 5.027 14.233 11.956l7.936 45.234h-20.659c-3.859 0-7-3.145-7-7.01zm10.74-69.245c0-6.509 5.296-11.805 11.805-11.805 6.51 0 11.806 5.296 11.806 11.805v11.805h-23.61v-11.805zm-61.408 26.805h35.668v92.62c0 12.137 9.869 22.01 22 22.01h110.331c3.078 2.946 6.502 5.502 10.223 7.606l29.582 16.753h-207.804zm-172.305 165.413c-24.303 0-44.953 15.892-52.135 37.826h-29.112c-4.676 0-8.48-3.804-8.48-8.479v-10.347h6.294c4.143 0 7.5-3.357 7.5-7.5s-3.357-7.5-7.5-7.5h-6.294v-15.424h247.032v49.25h-105.17c-7.182-21.933-27.832-37.826-52.135-37.826zm279.459 94.709c-21.976 0-39.854-17.879-39.854-39.854s17.879-39.854 39.854-39.854 39.854 17.879 39.854 39.854-17.879 39.854-39.854 39.854zm102.854-56.882h-50.719c-7.182-21.934-27.832-37.826-52.135-37.826s-44.953 15.892-52.135 37.826h-55.018v-49.25h219.967v15.424h-13.294c-4.143 0-7.5 3.357-7.5 7.5s3.357 7.5 7.5 7.5h13.294v8.856c0 5.497-4.468 9.97-9.96 9.97z" fill="#000000" data-original="#000000" style="" class=""/></g></g></g></svg>
