<?xml version="1.0"?>
<svg xmlns="http://www.w3.org/2000/svg" xmlns:xlink="http://www.w3.org/1999/xlink" xmlns:svgjs="http://svgjs.com/svgjs" version="1.1" width="512" height="512" x="0" y="0" viewBox="0 0 512 512" style="enable-background:new 0 0 512 512" xml:space="preserve" class=""><g><g xmlns="http://www.w3.org/2000/svg"><g><g><path d="m195.835 120.241h-30.928c-7.974 0-13.438-5.464-13.438-13.438l-1-29.772v-17.661c0-7.974 6.464-14.438 14.438-14.438h1.926l29.002 1c7.974 0 13.438 5.464 13.438 13.438v47.432c.001 7.974-5.464 13.439-13.438 13.439z" fill="#f3f0f3" data-original="#f3f0f3" style=""/><path d="m209.27 82.03v24.77c0 7.98-5.46 13.44-13.43 13.44l-28.903 1h-2.027c-7.98 0-14.44-6.46-14.44-14.44v-29.77c9.97 0 9.97 4 19.93 4 4.743 0 7.23-.905 9.607-1.854 2.62-1.046 5.106-1.146 10.333-1.146 9.97 0 8.97 4 18.93 4z" fill="#4a74c9" data-original="#e5646e" style="" class=""/><path d="m210.27 59.37v21.66l-1 25.77c0 7.98-5.46 13.44-13.43 13.44l-29 1c7.97 0 14.43-6.46 14.43-14.44l-1-27.771v-19.659c0-7.97-6.46-14.44-14.43-14.44h30c7.97 0 14.43 6.47 14.43 14.44z" fill="#e2dee2" data-original="#e2dee2" style="" class=""/><path d="m210.27 81.03v25.77c0 7.98-6.46 14.44-14.43 14.44h-30c7.97 0 14.43-6.46 14.43-14.44v-27.73c2.53-1.01 5.02-2.04 10.07-2.04 9.97 0 9.97 4 19.93 4z" fill="#7991c1" data-original="#db4655" style="" class=""/><path d="m86.885 359.771h331.019v37.705h-331.019z" fill="#f1f4fb" data-original="#ceced5" style="" class=""/><path d="m399.05 359.77h48.85v37.71h-48.85z" fill="#bbbbc2" data-original="#bbbbc2" style="" class=""/><path d="m95.737 455.368h-27.705v-114.638l10-28.85 17.705-10z" fill="#f3f0f3" data-original="#f3f0f3" style=""/><path d="m456.756 455.368h-27.705v-114.638l10-28.85 17.705-10z" fill="#f3f0f3" data-original="#f3f0f3" style=""/><path d="m85.737 301.88v13.892l-17.707 4.958v20h7.707c5.523 0 10 4.477 10 10v104.64h20v-153.49z" fill="#e2dee2" data-original="#e2dee2" style="" class=""/><path d="m446.76 301.88v16.933l-17.71 1.917v20h12.71c2.761 0 5 2.239 5 5v109.64h20v-153.49z" fill="#e2dee2" data-original="#e2dee2" style="" class=""/><path d="m122.112 464.817c0 20.008-15.22 35.228-35.228 35.228-3.468 0-6.823.513-9.998-.397-15.145-4.34-26.229-18.29-26.229-34.83 0-16.546 11.093-30.501 26.247-34.835 3.171-.907 6.519-.392 9.981-.392 20.008-.002 35.227 15.218 35.227 35.226z" fill="#4a74c9" data-original="#556d76" style="" class=""/><path d="m483.131 464.817c0 20.008-15.22 35.228-35.228 35.228-3.468 0-6.822.513-9.998-.397-15.145-4.34-26.229-18.29-26.229-34.83 0-16.546 11.092-30.501 26.246-34.835 3.171-.907 6.519-.393 9.981-.393 20.009-.001 35.228 15.219 35.228 35.227z" fill="#4a74c9" data-original="#556d76" style="" class=""/><path d="m122.871 283.027h324.06l29.001-1v-11.297c0-14.032-10.375-24.407-24.407-24.407l-28.773-1h-270.946c-8.527 0-16.705-3.387-22.735-9.417l-89.389-89.388c-7.362-7.362-19.299-7.362-26.661 0-7.362 7.362-7.362 19.298 0 26.661z" fill="#4a74c9" data-original="#95d6a4" style="" class=""/><path d="m484.13 464.82c0 20-16.22 36.22-36.23 36.22-3.47 0-6.82-.49-10-1.4 15.15-4.34 26.23-18.29 26.23-34.82 0-16.54-11.08-30.49-26.23-34.84 3.18-.9 6.53-1.39 10-1.39 20.01 0 36.23 16.22 36.23 36.23z" fill="#425a60" data-original="#425a60" style="" class=""/><path d="m123.112 464.82c0 20-16.22 36.22-36.23 36.22-3.47 0-6.82-.49-10-1.4 15.15-4.34 26.23-18.29 26.23-34.82 0-16.54-11.08-30.49-26.23-34.84 3.18-.9 6.53-1.39 10-1.39 20.01 0 36.23 16.22 36.23 36.23z" fill="#425a60" data-original="#425a60" style="" class=""/><path d="m476.93 270.73v12.3h-30v-12.3c0-14.03-11.37-25.41-25.4-25.41h30c14.03 0 25.4 11.38 25.4 25.41z" fill="#e1e7f3" data-original="#78c2a4" style="" class=""/><path d="m485.648 319.732-28.888 1h-407.62c-10.412 0-18.852-8.44-18.852-18.852 0-10.412 8.44-18.852 18.852-18.852h407.615l28.892 1c10.412 0 17.852 7.441 17.852 17.852.001 10.412-7.439 17.852-17.851 17.852z" fill="#f1f4fb" data-original="#ceced5" style="" class=""/><path d="m504.5 301.88c0 5.2-2.11 9.92-5.52 13.33s-8.12 5.52-13.33 5.52h-30c5.21 0 9.92-2.11 13.33-5.52s5.52-8.13 5.52-13.33c0-10.41-8.44-18.85-18.85-18.85h30c10.41 0 18.85 8.44 18.85 18.85z" fill="#bbbbc2" data-original="#bbbbc2" style="" class=""/></g></g><g><path d="m86.884 456.664c-4.462 0-8.08 3.617-8.08 8.079 0 4.462 3.618 8.079 8.08 8.079s8.08-3.617 8.08-8.079c0-4.462-3.617-8.079-8.08-8.079z" fill="#000000" data-original="#000000" style="" class=""/><path d="m447.904 456.664c-4.462 0-8.08 3.617-8.08 8.079 0 4.462 3.617 8.079 8.08 8.079 4.462 0 8.079-3.617 8.079-8.079 0-4.462-3.617-8.079-8.079-8.079z" fill="#000000" data-original="#000000" style="" class=""/><path d="m485.647 328.232c14.531 0 26.353-11.821 26.353-26.352s-11.821-26.353-26.353-26.353h-1.216v-4.798c0-18.145-14.762-32.907-32.906-32.907h-26.382c-.3-30.081-24.853-54.462-55.004-54.462h-173.953c-29.358 0-53.417 23.115-54.939 52.101-2.52-1.196-4.842-2.828-6.873-4.859l-21.139-21.139v-173.507c0-9.649 7.851-17.5 17.5-17.5h42.135v18.976h-7.964c-12.097 0-21.938 9.841-21.938 21.939v47.432c0 12.097 9.842 21.939 21.938 21.939h7.964v18.354c0 4.142 3.357 7.5 7.5 7.5s7.5-3.358 7.5-7.5v-18.354h7.964c12.097 0 21.938-9.842 21.938-21.939v-47.433c0-12.097-9.842-21.939-21.938-21.939h-7.964v-18.975h62.742c4.143 0 7.5-3.358 7.5-7.5s-3.357-7.5-7.5-7.5h-119.876c-17.921 0-32.5 14.58-32.5 32.5v158.509l-53.25-53.25c-4.978-4.978-11.596-7.719-18.635-7.718-7.039 0-13.656 2.741-18.633 7.719-4.977 4.976-7.718 11.593-7.718 18.632s2.741 13.657 7.718 18.634l20.585 20.585c2.93 2.929 7.678 2.928 10.607 0 2.929-2.929 2.929-7.678 0-10.606l-20.585-20.585c-4.427-4.426-4.427-11.628 0-16.055 4.427-4.426 11.629-4.425 16.054 0l66.052 66.052.004.004 23.333 23.333c4.91 4.91 10.886 8.363 17.401 10.166v24.152h-15.192l-63.946-63.946c-2.93-2.929-7.678-2.929-10.607 0s-2.929 7.678 0 10.606l53.339 53.339h-55.622c-14.531 0-26.352 11.822-26.352 26.353s11.821 26.352 26.352 26.352h11.392v101.718c-10.547 7.991-17.375 20.645-17.375 34.867 0 24.111 19.616 43.728 43.728 43.728 24.111 0 43.728-19.616 43.728-43.728 0-14.222-6.829-26.877-17.376-34.868v-24.973h226.472c4.143 0 7.5-3.358 7.5-7.5s-3.357-7.5-7.5-7.5h-226.474v-22.705h308.315v22.705h-49.158c-4.143 0-7.5 3.358-7.5 7.5s3.357 7.5 7.5 7.5h49.158v24.973c-10.547 7.991-17.376 20.645-17.376 34.868 0 24.111 19.616 43.728 43.727 43.728s43.728-19.616 43.728-43.728c0-14.222-6.828-26.876-17.375-34.867v-101.718zm-289.812-214.491h-30.928c-3.826 0-6.938-3.113-6.938-6.938v-20.684c2.765 1.106 6.245 2.409 12.434 2.409 6.433 0 9.941-1.408 12.761-2.54 2.191-.879 3.64-1.46 7.175-1.46s4.983.581 7.175 1.46c1.463.587 3.115 1.247 5.261 1.747v19.066c-.002 3.827-3.114 6.94-6.94 6.94zm6.938-54.371v12.568c-2.766-1.106-6.246-2.409-12.436-2.409-6.433 0-9.941 1.408-12.761 2.54-2.191.879-3.64 1.46-7.175 1.46-3.534 0-4.982-.581-7.174-1.46-1.462-.587-3.115-1.247-5.26-1.747v-10.952c0-3.826 3.112-6.938 6.938-6.938h15.454.01.01 15.454c3.828 0 6.94 3.112 6.94 6.938zm266.659 211.36v4.798h-44.274v-22.704h26.368c9.872-.001 17.906 8.031 17.906 17.906zm-111.522 4.797v-22.704h52.247v22.704zm-67.247 0v-22.704h52.247v22.704zm-67.247 0v-22.704h52.247v22.704zm52.247-37.704h-52.247v-39.463h52.247zm15-39.463h52.247v39.462h-52.247zm119.48 39.463h-52.233v-39.463h12.229c21.88 0 39.705 17.653 40.004 39.463zm-213.957-39.463h12.23v39.462h-52.233c.299-21.809 18.124-39.462 40.003-39.462zm-40.017 54.463h52.247v22.704h-52.247zm-69.284 240.721c-15.841 0-28.728-12.887-28.728-28.728 0-15.84 12.887-28.727 28.728-28.727s28.727 12.887 28.727 28.727c0 15.841-12.886 28.728-28.727 28.728zm0-72.455c-3.926 0-7.73.528-11.353 1.503v-94.361h22.704v94.361c-3.622-.974-7.425-1.503-11.351-1.503zm26.351-68.817v-24.04h50.791c4.143 0 7.5-3.358 7.5-7.5s-3.357-7.5-7.5-7.5h-114.886c-6.26 0-11.352-5.092-11.352-11.352s5.093-11.353 11.352-11.353h436.507c6.26 0 11.353 5.093 11.353 11.353s-5.093 11.352-11.353 11.352h-18.882c-.003 0-.006 0-.01 0-.003 0-.006 0-.01 0h-37.685c-.003 0-.006 0-.01 0-.003 0-.006 0-.01 0h-232.326c-4.143 0-7.5 3.358-7.5 7.5s3.357 7.5 7.5 7.5h224.837v24.04zm334.667 141.272c-15.841 0-28.727-12.887-28.727-28.728 0-15.84 12.887-28.727 28.727-28.727 15.841 0 28.728 12.887 28.728 28.727 0 15.841-12.887 28.728-28.728 28.728zm11.353-70.951c-3.623-.975-7.426-1.503-11.353-1.503-3.926 0-7.729.528-11.352 1.503v-94.361h22.704v94.361z" fill="#000000" data-original="#000000" style="" class=""/></g></g></g></svg>
