<?xml version="1.0"?>
<svg xmlns="http://www.w3.org/2000/svg" xmlns:xlink="http://www.w3.org/1999/xlink" xmlns:svgjs="http://svgjs.com/svgjs" version="1.1" width="512" height="512" x="0" y="0" viewBox="0 0 512 512" style="enable-background:new 0 0 512 512" xml:space="preserve" class=""><g><g xmlns="http://www.w3.org/2000/svg"><g><path clip-rule="evenodd" d="m123.806 239.34-73.701-23.016-9.978 70.691 96.775-19.614c3.543-11.168-2.069-23.498-13.096-28.061z" fill="#9ab0dd" fill-rule="evenodd" data-original="#edf4ff" style="" class=""/></g><g><path clip-rule="evenodd" d="m136.902 267.401c3.543-11.168-2.069-23.497-13.096-28.061l-31.946-9.977c11.027 4.563 16.639 26.87 13.096 38.038z" fill="#dbeaff" fill-rule="evenodd" data-original="#dbeaff" style=""/></g><g><path clip-rule="evenodd" d="m242.549 267.401h-62.787-106.753-22.904l-18 47.817 18 30.356 192.444-17.998 16.512-32.54z" fill="#82a7f1" fill-rule="evenodd" data-original="#c3ddff" style="" class=""/></g><g><path clip-rule="evenodd" d="m242.549 327.576h-192.444v-60.175-51.076-44.132c0-11.735-9.581-21.315-21.317-21.315-11.707 0-21.288 9.58-21.288 21.315v197.984h35.291 199.758l16.512-21.301z" fill="#f9f7f8" fill-rule="evenodd" data-original="#f9f7f8" style="" class=""/></g><g><path clip-rule="evenodd" d="m460.335 327.576v-107.68h-179.801c-20.891 0-37.984 17.092-37.984 37.981v9.524 60.175 42.601h217.786v-42.601z" fill="#93abdd" fill-rule="evenodd" data-original="#b3e59f" style="" class=""/></g><g><path clip-rule="evenodd" d="m502.94 370.177v-150.281c0-11.706-9.609-21.286-21.317-21.286-11.707 0-21.288 9.58-21.288 21.286l-30.657 107.68 30.657 42.601h14.995z" fill="#f9f7f8" fill-rule="evenodd" data-original="#f9f7f8" style="" class=""/></g><g><path clip-rule="evenodd" d="m203.715 267.401h38.835v60.175h-38.835z" fill="#4a74c9" fill-rule="evenodd" data-original="#a4ccff" style="" class=""/></g><g><path clip-rule="evenodd" d="m203.715 327.576h38.835v42.601h-38.835z" fill="#f0f0f0" fill-rule="evenodd" data-original="#f0f0f0" style="" class=""/></g><g><path clip-rule="evenodd" d="m460.335 327.576v-60.175-47.505h-35.206v47.505 60.175 42.601h35.206z" fill="#4a74c9" fill-rule="evenodd" data-original="#95d6a4" style="" class=""/></g><g><path clip-rule="evenodd" d="m50.105 267.401v-51.076-44.132c0-11.735-9.581-21.315-21.317-21.315-3.713 0-7.228.964-10.29 2.664 6.548 3.656 10.998 10.657 10.998 18.65v44.132 51.076 60.175h9.921 10.687v-42.601-17.573z" fill="#f0f0f0" fill-rule="evenodd" data-original="#f0f0f0" style="" class=""/></g><g><path clip-rule="evenodd" d="m279.088 176.926c43.88-23.299 60.548-77.748 37.247-121.625-12.132-22.874-32.797-38.378-55.984-44.642-15.109-4.082-31.323-4.252-46.97 0-6.35 1.729-12.614 4.167-18.68 7.398-43.852 23.299-60.548 77.748-37.247 121.625s77.754 60.543 121.634 37.244z" fill="#ffffff" fill-rule="evenodd" data-original="#faf5dc" style="" class=""/></g><g><path clip-rule="evenodd" d="m286.26 90.391c0-5.357-4.394-9.75-9.751-9.75h-22.762v-22.761c0-5.357-4.394-9.75-9.751-9.75h-14.202c-5.357 0-9.723 4.393-9.723 9.75v22.76h-22.791c-5.357 0-9.751 4.393-9.751 9.75v14.2c0 5.357 4.394 9.75 9.751 9.75h22.791v22.76c0 5.357 4.365 9.75 9.723 9.75h14.202c5.357 0 9.751-4.393 9.751-9.75v-22.76h22.762c5.357 0 9.751-4.393 9.751-9.75z" fill="#4a74c9" fill-rule="evenodd" data-original="#f37c7c" style="" class=""/></g><g><path clip-rule="evenodd" d="m279.088 176.926c43.88-23.299 60.548-77.748 37.247-121.625-12.132-22.874-32.797-38.378-55.984-44.642-11.707-3.175-24.066-3.997-36.34-2.211 3.628.51 7.2 1.247 10.715 2.211 23.187 6.264 43.824 21.768 55.984 44.642 23.301 43.877 6.633 98.326-37.247 121.625-9.439 5.017-19.332 8.163-29.31 9.609 18.226 2.636 37.417-.312 54.935-9.609z" fill="#ffffff" fill-rule="evenodd" data-original="#f5ebcd" style="" class=""/></g><g><path clip-rule="evenodd" d="m71.96 475.334c0-16.1-13.068-29.166-29.169-29.166-16.129 0-29.169 13.067-29.169 29.166 0 16.1 13.039 29.166 29.169 29.166 16.102 0 29.169-13.066 29.169-29.166z" fill="#4a74c9" fill-rule="evenodd" data-original="#7e707d" style="" class=""/></g><g><path clip-rule="evenodd" d="m504.499 475.221c-.085-16.071-13.124-29.053-29.169-29.053-16.129 0-29.168 13.067-29.168 29.166 0 16.1 13.039 29.166 29.168 29.166 16.044 0 29.083-12.982 29.169-29.025v-.142z" fill="#4a74c9" fill-rule="evenodd" data-original="#7e707d" style="" class=""/></g><g><path clip-rule="evenodd" d="m504.499 475.221c-.085-16.071-13.124-29.053-29.169-29.053-3.572 0-7.002.652-10.176 1.814 11.055 4.11 18.964 14.739 19.02 27.239v.113.142c-.057 12.471-7.965 23.101-19.02 27.21 3.175 1.19 6.605 1.814 10.176 1.814 16.044 0 29.083-12.982 29.169-29.025v-.142z" fill="#2a54a9" fill-rule="evenodd" data-original="#6a5d6a" style="" class=""/></g><g><path clip-rule="evenodd" d="m42.792 504.5c16.101 0 29.169-13.067 29.169-29.166 0-16.1-13.068-29.166-29.169-29.166-3.572 0-7.002.652-10.176 1.814 11.112 4.138 19.02 14.824 19.02 27.352s-7.909 23.242-19.02 27.352c3.174 1.191 6.604 1.814 10.176 1.814z" fill="#2a54a9" fill-rule="evenodd" data-original="#6a5d6a" style="" class=""/></g><g><path clip-rule="evenodd" d="m502.94 370.177v-150.281c0-11.706-9.609-21.286-21.317-21.286-4.082 0-7.909 1.162-11.168 3.175 6.094 3.77 10.148 10.487 10.148 18.112v150.281h22.337z" fill="#f0f0f0" fill-rule="evenodd" data-original="#f0f0f0" style="" class=""/></g><g><path d="m208.357 190.666c9.427 2.886 19.064 4.316 28.652 4.316 15.725 0 31.314-3.848 45.597-11.433 47.454-25.197 65.557-84.307 40.353-131.766-12.209-22.989-32.639-39.846-57.528-47.466-24.888-7.622-51.255-5.093-74.249 7.116 0 0-.001.001-.001.001-47.447 25.209-65.549 84.318-40.352 131.765 12.209 22.99 32.639 39.846 57.528 47.467zm-10.137-165.986-.001.001c19.454-10.33 41.765-12.466 62.821-6.021 21.057 6.446 38.342 20.708 48.671 40.159 21.325 40.155 6.009 90.166-34.14 111.484-19.455 10.331-41.763 12.469-62.821 6.022-21.057-6.447-38.342-20.709-48.672-40.16-21.319-40.144-6.003-90.156 34.142-111.485z" fill="#000000" data-original="#000000" style="" class=""/><path d="m197.28 121.842h15.29v15.26c0 9.512 7.726 17.25 17.223 17.25h14.202c9.512 0 17.251-7.738 17.251-17.25v-15.26h15.262c9.513 0 17.252-7.738 17.252-17.25v-14.201c0-9.512-7.739-17.25-17.252-17.25h-15.262v-15.26c0-9.512-7.739-17.25-17.251-17.25h-14.202c-9.497 0-17.223 7.738-17.223 17.25v15.26h-15.29c-9.512 0-17.252 7.738-17.252 17.25v14.201c0 9.512 7.74 17.25 17.252 17.25zm-2.251-31.451c0-1.22 1.031-2.251 2.251-2.251h22.791c4.142 0 7.5-3.357 7.5-7.5v-22.76c0-1.22 1.018-2.251 2.222-2.251h14.202c1.22 0 2.251 1.031 2.251 2.251v22.76c0 4.142 3.358 7.5 7.5 7.5h22.762c1.22 0 2.251 1.031 2.251 2.251v14.201c0 1.22-1.031 2.251-2.251 2.251h-22.762c-4.142 0-7.5 3.357-7.5 7.5v22.76c0 1.22-1.031 2.251-2.251 2.251h-14.202c-1.205 0-2.222-1.031-2.222-2.251v-22.76c0-4.142-3.358-7.5-7.5-7.5h-22.791c-1.22 0-2.251-1.031-2.251-2.251z" fill="#000000" data-original="#000000" style="" class=""/><path d="m482.831 439.442v-61.766h20.109c4.143 0 7.501-3.357 7.501-7.5v-150.28c0-15.872-12.928-28.786-28.817-28.786-13.28 0-24.482 9.04-27.791 21.286h-67.595c-4.143 0-7.5 3.357-7.5 7.5s3.358 7.5 7.5 7.5h66.597v135.282h-202.785v-35.101-69.698c0-16.808 13.675-30.482 30.484-30.482h71.064c4.143 0 7.5-3.357 7.5-7.5s-3.358-7.5-7.5-7.5h-71.064c-25.08 0-45.485 20.402-45.485 45.482v2.023h-89.611c-.287-11.737-7.425-22.798-18.764-27.49-.207-.086-.418-.162-.632-.229l-68.436-21.373v-38.617c0-15.888-12.928-28.814-28.817-28.814-15.875-.001-28.789 12.925-28.789 28.813v70.181c0 4.142 3.358 7.5 7.5 7.5s7.5-3.357 7.5-7.5v-70.181c0-7.618 6.185-13.815 13.788-13.815 7.618 0 13.816 6.197 13.816 13.815v155.383c0 4.142 3.358 7.5 7.5 7.5h184.943v27.601h-220.046v-85.667c0-4.142-3.358-7.5-7.5-7.5s-7.5 3.357-7.5 7.5v93.167c0 4.142 3.358 7.5 7.5 7.5h27.791v61.766c-16.634 3.471-29.168 18.245-29.168 35.893 0 20.217 16.45 36.666 36.669 36.666s36.669-16.449 36.669-36.666c0-17.648-12.535-32.421-29.168-35.893v-23.784h417.536v23.784c-16.634 3.471-29.169 18.245-29.169 35.893 0 20.217 16.45 36.666 36.669 36.666s36.67-16.45 36.67-36.667c0-17.648-12.535-32.421-29.169-35.892zm-1.208-233.333c7.619 0 13.816 6.184 13.816 13.787v142.781h-27.603v-142.781c0-7.603 6.185-13.787 13.787-13.787zm-360.407 40.28c5.493 2.401 8.976 7.776 9.228 13.512h-72.838v-33.378zm-63.61 73.687v-45.176h79.296 98.147v45.176zm6.854 155.258c0 11.947-9.72 21.666-21.668 21.666s-21.668-9.719-21.668-21.666c0-11.948 9.72-21.667 21.668-21.667s21.668 9.72 21.668 21.667zm-14.168-74.675v-22.982h192.257 225.281v22.982zm425.039 96.342c-11.948 0-21.668-9.719-21.668-21.666 0-11.948 9.72-21.667 21.668-21.667s21.668 9.719 21.668 21.667c0 11.946-9.72 21.666-21.668 21.666z" fill="#000000" data-original="#000000" style="" class=""/></g></g></g></svg>
