<svg id="Capa_1" enable-background="new 0 0 512 512" height="512" viewBox="0 0 512 512" width="512" xmlns="http://www.w3.org/2000/svg"><g><g><path clip-rule="evenodd" d="m327.455 373.021h-142.91c-4.05 0-7.377 3.153-7.377 7.001v122.778h78.832 78.803v-122.778c0-3.848-3.298-7.001-7.348-7.001z" fill="#f9f7f8" fill-rule="evenodd"/></g><g><path clip-rule="evenodd" d="m103.515 152.055h304.969c3.616 0 6.567-2.951 6.567-6.567v-33.732c0-3.616-2.951-6.567-6.567-6.567h-304.969c-3.616 0-6.596 2.951-6.596 6.567v33.732c0 3.617 2.98 6.567 6.596 6.567z" fill="#e0dfe1" fill-rule="evenodd"/></g><g><path clip-rule="evenodd" d="m376.779 111.756v33.732c0 3.587-2.922 6.538-6.509 6.567h27.974 10.241c3.616 0 6.567-2.951 6.567-6.567v-33.732c0-3.616-2.951-6.567-6.567-6.567h-38.273c3.616 0 6.567 2.951 6.567 6.567z" fill="#d3cfd2" fill-rule="evenodd"/></g><g><path clip-rule="evenodd" d="m7.5 232.451h106.256v270.349h-106.256z" fill="#c3ddff" fill-rule="evenodd"/></g><g><path clip-rule="evenodd" d="m113.756 232.451v270.349h63.412v-122.778c0-3.848 3.327-7.001 7.377-7.001h142.909c4.05 0 7.348 3.153 7.348 7.001v122.778h63.441v-270.349-44.031-36.365h-27.974-25.631-4.137-169.003-57.742v36.365z" fill="#edf4ff" fill-rule="evenodd"/></g><g><path clip-rule="evenodd" d="m398.244 232.451h106.256v270.349h-106.256z" fill="#c3ddff" fill-rule="evenodd"/></g><g><path clip-rule="evenodd" d="m113.756 188.42h-100.615c-3.124 0-5.641 2.546-5.641 5.67v38.361h106.256z" fill="#e0dfe1" fill-rule="evenodd"/></g><g><path clip-rule="evenodd" d="m398.244 188.42v44.031h106.256v-38.361c0-3.124-2.546-5.67-5.641-5.67z" fill="#e0dfe1" fill-rule="evenodd"/></g><g><path clip-rule="evenodd" d="m88.79 232.451h24.966v270.349h-24.966z" fill="#a4ccff" fill-rule="evenodd"/></g><g><path clip-rule="evenodd" d="m371.427 152.055v36.365 44.031 270.349h26.817v-270.349-44.031-36.365z" fill="#dbeaff" fill-rule="evenodd"/></g><g><path clip-rule="evenodd" d="m168.75 268.295c-1.736 0-3.153 1.418-3.153 3.182v31.533c0 1.736 1.418 3.153 3.153 3.153h34.715c1.736 0 3.182-1.418 3.182-3.153v-31.533c0-1.765-1.446-3.182-3.182-3.182z" fill="#f9f7f8" fill-rule="evenodd"/></g><g><path clip-rule="evenodd" d="m235.46 271.477v31.533c0 1.736 1.446 3.153 3.182 3.153h34.715c1.736 0 3.153-1.418 3.153-3.153v-31.533c0-1.765-1.418-3.182-3.153-3.182h-34.715c-1.735 0-3.182 1.418-3.182 3.182z" fill="#f9f7f8" fill-rule="evenodd"/></g><g><path clip-rule="evenodd" d="m305.353 271.477v31.533c0 1.736 1.418 3.153 3.182 3.153h34.686c1.765 0 3.182-1.418 3.182-3.153v-31.533c0-1.765-1.418-3.182-3.182-3.182h-34.686c-1.765 0-3.182 1.418-3.182 3.182z" fill="#f9f7f8" fill-rule="evenodd"/></g><g><path clip-rule="evenodd" d="m305.353 202.74v31.533c0 1.736 1.418 3.182 3.182 3.182h34.686c1.765 0 3.182-1.446 3.182-3.182v-31.533c0-1.736-1.418-3.182-3.182-3.182h-34.686c-1.765 0-3.182 1.447-3.182 3.182z" fill="#f9f7f8" fill-rule="evenodd"/></g><g><path clip-rule="evenodd" d="m235.46 202.74v31.533c0 1.736 1.446 3.182 3.182 3.182h34.715c1.736 0 3.153-1.446 3.153-3.182v-31.533c0-1.736-1.418-3.182-3.153-3.182h-34.715c-1.735 0-3.182 1.447-3.182 3.182z" fill="#f9f7f8" fill-rule="evenodd"/></g><g><path clip-rule="evenodd" d="m168.75 199.558c-1.736 0-3.153 1.446-3.153 3.182v31.533c0 1.736 1.418 3.182 3.153 3.182h34.715c1.736 0 3.182-1.446 3.182-3.182v-31.533c0-1.736-1.446-3.182-3.182-3.182z" fill="#f9f7f8" fill-rule="evenodd"/></g><g><path clip-rule="evenodd" d="m477.625 194.09v38.361h26.875v-38.361c0-3.124-2.546-5.67-5.641-5.67h-26.875c3.095 0 5.641 2.546 5.641 5.67z" fill="#d3cfd2" fill-rule="evenodd"/></g><g><path clip-rule="evenodd" d="m477.625 232.451h26.875v270.349h-26.875z" fill="#a4ccff" fill-rule="evenodd"/></g><g><path clip-rule="evenodd" d="m88.79 188.42h24.966v44.031h-24.966z" fill="#d3cfd2" fill-rule="evenodd"/></g><g><path clip-rule="evenodd" d="m171.498 152.055h169.003v-137.85c0-2.748-2.256-5.005-5.034-5.005h-158.964c-2.748 0-5.005 2.257-5.005 5.005z" fill="#faf5dc" fill-rule="evenodd"/></g><g><path clip-rule="evenodd" d="m311.197 14.205v90.984 46.866h29.305v-46.866-90.984c0-2.748-2.256-5.005-5.034-5.005h-29.305c2.777 0 5.034 2.257 5.034 5.005z" fill="#f5ebcd" fill-rule="evenodd"/></g><g><path clip-rule="evenodd" d="m287.764 64.167h-15.332v-15.304c0-5.236-4.281-9.518-9.489-9.518h-13.886c-5.236 0-9.518 4.282-9.518 9.518v15.304h-15.303c-5.236 0-9.518 4.282-9.518 9.518v13.857c0 5.236 4.282 9.518 9.518 9.518h15.303v15.333c0 5.236 4.281 9.518 9.518 9.518h13.886c5.207 0 9.489-4.282 9.489-9.518v-15.333h15.332c5.236 0 9.518-4.282 9.518-9.518v-13.857c0-5.237-4.282-9.518-9.518-9.518z" fill="#f37c7c" fill-rule="evenodd"/></g><g><path d="m289.239 460.599c4.142 0 7.5-3.358 7.5-7.5v-20.222c0-4.142-3.358-7.5-7.5-7.5s-7.5 3.358-7.5 7.5v20.222c0 4.142 3.358 7.5 7.5 7.5z"/><path d="m222.731 460.714c4.142 0 7.5-3.358 7.5-7.5v-20.193c0-4.142-3.358-7.5-7.5-7.5s-7.5 3.358-7.5 7.5v20.193c0 4.142 3.358 7.5 7.5 7.5z"/><path d="m429.776 338.602h43.191c4.142 0 7.5-3.358 7.5-7.5s-3.358-7.5-7.5-7.5h-43.191c-4.142 0-7.5 3.358-7.5 7.5s3.358 7.5 7.5 7.5z"/><path d="m429.776 387.927h43.191c4.142 0 7.5-3.358 7.5-7.5s-3.358-7.5-7.5-7.5h-43.191c-4.142 0-7.5 3.358-7.5 7.5s3.358 7.5 7.5 7.5z"/><path d="m429.776 437.252h43.191c4.142 0 7.5-3.358 7.5-7.5s-3.358-7.5-7.5-7.5h-43.191c-4.142 0-7.5 3.358-7.5 7.5s3.358 7.5 7.5 7.5z"/><path d="m429.776 289.276h43.191c4.142 0 7.5-3.358 7.5-7.5s-3.358-7.5-7.5-7.5h-43.191c-4.142 0-7.5 3.358-7.5 7.5s3.358 7.5 7.5 7.5z"/><path d="m82.224 323.602h-43.191c-4.142 0-7.5 3.358-7.5 7.5s3.358 7.5 7.5 7.5h43.191c4.142 0 7.5-3.358 7.5-7.5s-3.358-7.5-7.5-7.5z"/><path d="m82.224 372.927h-43.191c-4.142 0-7.5 3.358-7.5 7.5s3.358 7.5 7.5 7.5h43.191c4.142 0 7.5-3.358 7.5-7.5s-3.358-7.5-7.5-7.5z"/><path d="m82.224 422.252h-43.191c-4.142 0-7.5 3.358-7.5 7.5s3.358 7.5 7.5 7.5h43.191c4.142 0 7.5-3.358 7.5-7.5s-3.358-7.5-7.5-7.5z"/><path d="m82.224 274.276h-43.191c-4.142 0-7.5 3.358-7.5 7.5s3.358 7.5 7.5 7.5h43.191c4.142 0 7.5-3.358 7.5-7.5s-3.358-7.5-7.5-7.5z"/><path d="m203.465 192.058h-34.715c-5.874 0-10.653 4.792-10.653 10.682v31.534c0 5.89 4.779 10.682 10.653 10.682h34.715c5.89 0 10.682-4.792 10.682-10.682v-31.534c0-5.89-4.792-10.682-10.682-10.682zm-4.318 37.898h-26.05v-22.898h26.05z"/><path d="m238.643 192.058c-5.89 0-10.682 4.792-10.682 10.682v31.534c0 5.89 4.792 10.682 10.682 10.682h34.715c5.874 0 10.653-4.792 10.653-10.682v-31.534c0-5.89-4.779-10.682-10.653-10.682zm30.368 37.898h-26.05v-22.898h26.05z"/><path d="m308.535 244.956h34.686c5.89 0 10.682-4.792 10.682-10.682v-31.534c0-5.89-4.792-10.682-10.682-10.682h-34.686c-5.89 0-10.682 4.792-10.682 10.682v31.534c0 5.89 4.792 10.682 10.682 10.682zm4.318-37.898h26.05v22.898h-26.05z"/><path d="m203.465 260.795h-34.715c-5.874 0-10.653 4.792-10.653 10.683v31.533c0 5.874 4.779 10.653 10.653 10.653h34.715c5.89 0 10.682-4.779 10.682-10.653v-31.533c0-5.891-4.792-10.683-10.682-10.683zm-4.318 37.869h-26.05v-22.869h26.05z"/><path d="m273.357 260.795h-34.715c-5.89 0-10.682 4.792-10.682 10.683v31.533c0 5.874 4.792 10.653 10.682 10.653h34.715c5.874 0 10.653-4.779 10.653-10.653v-31.533c.001-5.891-4.779-10.683-10.653-10.683zm-4.346 37.869h-26.05v-22.869h26.05z"/><path d="m308.535 313.664h34.686c5.89 0 10.682-4.779 10.682-10.653v-31.533c0-5.891-4.792-10.683-10.682-10.683h-34.686c-5.89 0-10.682 4.792-10.682 10.683v31.533c0 5.874 4.792 10.653 10.682 10.653zm4.318-37.869h26.05v22.869h-26.05z"/><path d="m498.859 180.92h-93.115v-21.365h2.741c7.756 0 14.067-6.311 14.067-14.067v-33.732c0-7.757-6.311-14.067-14.067-14.067h-60.483v-83.484c0-6.895-5.623-12.505-12.534-12.505h-158.965c-6.895 0-12.504 5.61-12.504 12.505v83.484h-60.483c-7.772 0-14.096 6.311-14.096 14.067v33.732c0 7.756 6.323 14.067 14.096 14.067h2.741v21.365h-93.116c-7.246 0-13.141 5.908-13.141 13.17v308.71c0 4.142 3.358 7.5 7.5 7.5h497c4.142 0 7.5-3.358 7.5-7.5v-308.71c0-7.262-5.895-13.17-13.141-13.17zm-150.858-68.231h59.55v31.866h-59.55zm-243.582 31.866v-31.866h59.579v31.866zm-89.419 51.365h91.256v29.031h-91.256zm233.5 187.516v111.864h-63.832v-114.779l64.418.002c-.377.896-.586 1.88-.586 2.913zm78.803 111.864h-63.803v-111.864c0-1.033-.209-2.017-.587-2.912l64.389.002v114.774zm63.441 0h-48.441v-115.278c0-7.996-6.661-14.501-14.848-14.501h-142.91c-8.203 0-14.877 6.505-14.877 14.501v115.278h-48.412v-115.538c0-4.142-3.358-7.5-7.5-7.5s-7.5 3.358-7.5 7.5v115.538h-91.256v-255.349h91.256v104.458c0 4.142 3.358 7.5 7.5 7.5s7.5-3.358 7.5-7.5v-184.854h121.581c4.142 0 7.5-3.358 7.5-7.5s-3.358-7.5-7.5-7.5h-63.839v-127.855h154.003v127.855h-54.841c-4.142 0-7.5 3.358-7.5 7.5s3.358 7.5 7.5 7.5h112.584zm106.256 0h-91.256v-255.349h91.256zm0-270.349h-91.256v-29.031h91.256z"/><path d="m279.932 112.393v-7.833h7.833c9.383 0 17.018-7.634 17.018-17.018v-13.857c0-9.384-7.634-17.018-17.018-17.018h-7.833v-7.804c0-9.384-7.621-17.018-16.989-17.018h-13.886c-9.383 0-17.018 7.634-17.018 17.018v7.804h-7.804c-9.383 0-17.018 7.634-17.018 17.018v13.857c0 9.384 7.634 17.018 17.018 17.018h7.804v7.833c0 9.384 7.634 17.018 17.018 17.018h13.886c9.368 0 16.989-7.635 16.989-17.018zm-32.892 0v-15.333c0-4.142-3.358-7.5-7.5-7.5h-15.304c-1.094 0-2.018-.924-2.018-2.018v-13.857c0-1.094.924-2.018 2.018-2.018h15.304c4.142 0 7.5-3.358 7.5-7.5v-15.304c0-1.094.924-2.018 2.018-2.018h13.886c1.078 0 1.989.924 1.989 2.018v15.304c0 4.142 3.358 7.5 7.5 7.5h15.333c1.094 0 2.018.924 2.018 2.018v13.857c0 1.094-.924 2.018-2.018 2.018h-15.333c-4.142 0-7.5 3.358-7.5 7.5v15.333c0 1.094-.911 2.018-1.989 2.018h-13.886c-1.095 0-2.018-.925-2.018-2.018z"/></g></g></svg>