<svg id="Layer_5" enable-background="new 0 0 64 64" height="512" viewBox="0 0 64 64" width="512" xmlns="http://www.w3.org/2000/svg"><path d="m19.27 32.13c-1.29 1.28-1.92 2.53-2.27 3.55v-11.87c0-1.43-.67-2.75-1.74-3.71-1.99-1.8-3.26-4.73-3.26-8.1 0-5.61 3.51-10 8-10s8 4.39 8 10c0 3.37-1.27 6.3-3.26 8.1-1.07.96-1.74 2.28-1.74 3.71v5.99c-1.05.34-2.37.97-3.73 2.33z" fill="#e6e9ed"/><path d="m52 4v12.36c0 1.08-.36 2.09-.97 2.9-.62.82-1.49 1.44-2.53 1.74-2.07.59-3.5 2.49-3.5 4.64v12.92c-1.83-1.19-3.85-2.12-6-2.73v-10.19c0-1.08-.36-2.09-.97-2.9-.62-.82-1.49-1.44-2.53-1.74-2.07-.59-3.5-2.49-3.5-4.64v-12.36c0-.55.22-1.05.59-1.41.36-.37.86-.59 1.41-.59 1.1 0 2 .9 2 2v10c0 .55.22 1.05.59 1.41.36.37.86.59 1.41.59 1.1 0 2-.9 2-2v-10c0-.55.22-1.05.59-1.41.36-.37.86-.59 1.41-.59 1.1 0 2 .9 2 2v10c0 .55.22 1.05.59 1.41.36.37.86.59 1.41.59 1.1 0 2-.9 2-2v-10c0-.55.22-1.05.59-1.41.36-.37.86-.59 1.41-.59 1.1 0 2 .9 2 2z" fill="#e6e9ed"/><path d="m45.35 57.27c9.72-1.13 16.43-3.45 16.64-6.14h.01v3.87c0 3.87-13.43 7-30 7s-30-3.13-30-7v-4c0 1.72 2.65 3.29 7.05 4.5v.01c5.5 1.52 13.74 2.49 22.95 2.49 2.77 0 5.45-.09 8-.25h.01c1.86-.12 3.65-.28 5.34-.48z" fill="#aab2bd"/><path d="m9.87 50.13.17.17c-.53 1.66-.87 3.39-.99 5.2-4.4-1.21-7.05-2.78-7.05-4.5 0-1.46 1.91-2.81 5.19-3.94-.04.06-.11.12-.19.2z" fill="#e6e9ed"/><path d="m62 51c0 .04 0 .09-.01.13-.21 2.69-6.92 5.01-16.64 6.14 2.19-1.01 3.84-2.97 4.42-5.36.4.06.81.09 1.23.09 3.14 0 5.85-1.8 7.16-4.43 2.44 1.01 3.84 2.18 3.84 3.43z" fill="#e6e9ed"/><path d="m45.08 38.62c-.88.97-1.53 2.16-1.85 3.47-.4-.06-.81-.09-1.23-.09-4.42 0-8 3.58-8 8 0 3.73 2.55 6.86 6 7.75-2.55.16-5.23.25-8 .25-9.21 0-17.45-.97-22.95-2.49v-.01c.12-1.81.46-3.54.99-5.2l2.7 2.7c1.97-1.97 2.4-3.84 2.65-4.97.17-.72.17-.72.48-1.03.32-.32.32-.32 1.04-.48 1.12-.26 3-.69 4.96-2.66 1.97-1.96 2.4-3.84 2.66-4.96.16-.72.16-.72.48-1.04.31-.31.31-.31 1.02-.47 1.07-.25 2.83-.64 4.7-2.39h.27 2c2.09 0 4.1.29 6 .83 2.15.61 4.17 1.54 6 2.73.03.02.05.04.08.06z" fill="#ffeaa7"/><path d="m28.13 31.87-2.87-2.87c-.31.31-.31.31-1.03.48-.34.07-.76.17-1.23.32-1.05.34-2.37.97-3.73 2.33-1.29 1.28-1.92 2.53-2.27 3.55-.19.54-.3 1.02-.39 1.41-.16.72-.16.72-.47 1.04-.32.31-.32.31-1.04.48-1.12.25-3 .68-4.97 2.65-1.96 1.97-2.39 3.84-2.65 4.97-.12.53-.15.67-.29.83-.04.06-.11.12-.19.2l2.87 2.87.17.17 2.7 2.7c1.97-1.97 2.4-3.84 2.65-4.97.17-.72.17-.72.48-1.03.32-.32.32-.32 1.04-.48 1.12-.26 3-.69 4.96-2.66 1.97-1.96 2.4-3.84 2.66-4.96.16-.72.16-.72.48-1.04.31-.31.31-.31 1.02-.47 1.07-.25 2.83-.64 4.7-2.39.09-.08.18-.17.27-.26z" fill="#ff826e"/><path d="m49.77 51.91c-.58 2.39-2.23 4.35-4.42 5.36-1.69.2-3.48.36-5.34.48h-.01c-3.45-.89-6-4.02-6-7.75 0-4.42 3.58-8 8-8 .42 0 .83.03 1.23.09-.15.61-.23 1.25-.23 1.91 0 .78.11 1.53.32 2.24-.41-.14-.85-.24-1.32-.24-2.21 0-4 1.79-4 4s1.79 4 4 4c2.13 0 3.85-1.66 3.98-3.77 1.07.86 2.37 1.46 3.79 1.68z" fill="#a0d468"/><path d="m45.98 50.22v.01c-.13 2.11-1.85 3.77-3.98 3.77-2.21 0-4-1.79-4-4s1.79-4 4-4c.47 0 .91.1 1.32.24.46 1.59 1.4 2.98 2.66 3.98z" fill="#b4dd7f"/><path d="m49.77 51.91c-1.42-.22-2.72-.82-3.79-1.68v-.01c-1.26-1-2.2-2.39-2.66-3.98-.21-.71-.32-1.46-.32-2.24 0-.66.08-1.3.23-1.91.32-1.31.97-2.5 1.85-3.47 1.46-1.61 3.57-2.62 5.92-2.62 4.42 0 8 3.58 8 8 0 1.28-.3 2.5-.84 3.57-1.31 2.63-4.02 4.43-7.16 4.43-.42 0-.83-.03-1.23-.09z" fill="#fc6e51"/><circle cx="51" cy="44" fill="#ff826e" r="4"/><path d="m63 51c0-1.481-1.197-2.804-3.547-3.941.348-.957.547-1.984.547-3.059 0-4.962-4.037-9-9-9-1.849 0-3.569.562-5 1.522v-10.882c0-1.699 1.141-3.212 2.774-3.679 2.489-.711 4.226-3.014 4.226-5.601v-12.36c0-1.654-1.346-3-3-3s-3 1.346-3 3v10c0 .551-.448 1-1 1s-1-.449-1-1v-10c0-1.654-1.346-3-3-3s-3 1.346-3 3v10c0 .551-.448 1-1 1s-1-.449-1-1v-10c0-1.654-1.346-3-3-3s-3 1.346-3 3v12.36c0 2.587 1.737 4.891 4.226 5.602 1.633.466 2.774 1.979 2.774 3.678v8.906c-1.63-.361-3.305-.546-5-.546l-1.324.001-6.413-6.414-.708.706c-.055.055-.087.103-.07.091-.096.038-.232.062-.474.117-.003.001-.008.002-.011.003v-4.696c0-1.09.5-2.143 1.407-2.963 2.283-2.066 3.593-5.29 3.593-8.845 0-6.168-3.953-11-9-11s-9 4.832-9 11c0 3.555 1.31 6.779 3.593 8.844.907.821 1.407 1.874 1.407 2.964v11.73c-.168.518-.279.977-.36 1.333-.056.243-.08.38-.083.417-.031.039-.073.077-.127.131-.058.058-.094.098-.075.095-.097.038-.233.063-.477.118-1.146.261-3.278.748-5.451 2.921-2.171 2.17-2.659 4.303-2.922 5.453-.026.115-.045.203-.058.271-3.602 1.303-5.447 2.889-5.447 4.723v4c0 5.252 15.595 8 31 8s31-2.748 31-8v-3.866h-.012c.002-.045.012-.089.012-.134zm-2 0c0 1.579-4.386 3.55-12.126 4.793.701-.832 1.25-1.787 1.614-2.819.171.01.339.026.512.026 3.177 0 5.968-1.659 7.57-4.151 1.773.855 2.43 1.654 2.43 2.151zm-20.851 5.744c-3.036-.831-5.149-3.583-5.149-6.744 0-3.86 3.141-7 7-7 .019 0 .039.004.058.004-.036.328-.058.659-.058.996 0 .34.023.675.06 1.005-.02 0-.04-.005-.06-.005-2.757 0-5 2.243-5 5s2.243 5 5 5v-2c-1.654 0-3-1.346-3-3s1.346-3 3-3c.184 0 .366.02.544.053.972 2.682 3.176 4.774 5.932 5.581-.654 1.597-1.893 2.93-3.466 3.682-1.525.172-3.147.317-4.861.428zm10.851-19.744c3.859 0 7 3.14 7 7s-3.141 7-7 7-7-3.14-7-7 3.141-7 7-7zm-15.226-16.961c-1.633-.467-2.774-1.98-2.774-3.679v-12.36c0-.551.448-1 1-1s1 .449 1 1v10c0 1.654 1.346 3 3 3s3-1.346 3-3v-10c0-.551.448-1 1-1s1 .449 1 1v10c0 1.654 1.346 3 3 3s3-1.346 3-3v-10c0-.551.448-1 1-1s1 .449 1 1v12.36c0 1.699-1.141 3.212-2.774 3.679-2.489.711-4.226 3.014-4.226 5.601v11.164c-1.28-.699-2.619-1.267-4-1.707v-9.457c0-2.587-1.737-4.89-4.226-5.601zm7.831 18.845c-.458.66-.824 1.384-1.094 2.155-.171-.01-.34-.039-.511-.039-4.963 0-9 4.038-9 9 0 2.751 1.248 5.261 3.262 6.93-1.375.044-2.793.07-4.262.07-9.376 0-16.858-.952-21.875-2.218.09-.861.233-1.713.428-2.553l2.185 2.185.707-.707c2.174-2.173 2.66-4.305 2.921-5.451.056-.243.08-.38.084-.418.031-.039.073-.078.13-.134.053-.053.09-.094.075-.094.096-.038.233-.063.475-.118 1.146-.261 3.278-.748 5.451-2.92 2.172-2.171 2.658-4.304 2.92-5.451.056-.243.08-.379.084-.417.031-.039.073-.078.128-.132.054-.055.083-.099.069-.09.096-.038.232-.062.473-.117 1.038-.236 2.887-.67 4.843-2.363l1.902-.002c3.756 0 7.396 1.001 10.605 2.884zm-17.794-2.47c-.805.184-1.014.246-1.513.744-.499.5-.562.71-.747 1.52-.247 1.082-.62 2.717-2.384 4.48-1.765 1.765-3.4 2.138-4.483 2.385-.808.185-1.018.248-1.518.747-.502.501-.564.712-.749 1.522-.212.928-.517 2.263-1.714 3.739l-1.453-1.453c.858-1.067 1.078-1.998 1.268-2.833.198-.867.354-1.552 1.276-2.474.923-.922 1.607-1.079 2.475-1.276.99-.227 2.113-.483 3.442-1.812s1.585-2.452 1.811-3.442c.198-.867.354-1.551 1.274-2.472.92-.92 1.604-1.076 2.471-1.273.834-.19 1.763-.409 2.829-1.266l1.453 1.453c-1.475 1.197-2.81 1.5-3.738 1.711zm-9.876-17.053c-1.866-1.687-2.935-4.37-2.935-7.361 0-5.047 3.075-9 7-9s7 3.953 7 9c0 2.991-1.069 5.674-2.935 7.361-1.332 1.205-2.065 2.784-2.065 4.447v5.302c-1.026.415-2.223 1.092-3.44 2.31-.206.206-.383.41-.56.614v-8.226c0-1.663-.733-3.242-2.065-4.447zm-7.48 27.086c.247-1.082.622-2.718 2.386-4.481 1.766-1.766 3.4-2.138 4.483-2.385.808-.185 1.017-.248 1.519-.747.499-.499.562-.708.747-1.519.246-1.082.619-2.717 2.384-4.481 1.765-1.765 3.398-2.136 4.48-2.382.285-.065.496-.115.671-.174l1.549 1.549c-.634.46-1.19.589-1.85.739-.99.226-2.112.481-3.44 1.809-1.328 1.329-1.584 2.451-1.81 3.441-.198.867-.354 1.551-1.275 2.473-.922.922-1.606 1.078-2.474 1.276-.991.227-2.113.483-3.443 1.812-1.329 1.329-1.586 2.452-1.812 3.442-.151.662-.281 1.219-.743 1.855l-1.548-1.549c.06-.177.11-.389.176-.678zm-1.801 1.882 2.262 2.263c-.345 1.19-.598 2.408-.747 3.645-3.354-1.043-5.169-2.221-5.169-3.237 0-.633.993-1.639 3.654-2.671zm25.346 12.671c-17.968 0-29-3.495-29-6v-.97c4.684 3.273 16.898 4.97 29 4.97s24.316-1.697 29-4.97v.97c0 2.505-11.032 6-29 6z"/><path d="m51 49c2.757 0 5-2.243 5-5s-2.243-5-5-5-5 2.243-5 5 2.243 5 5 5zm0-8c1.654 0 3 1.346 3 3s-1.346 3-3 3-3-1.346-3-3 1.346-3 3-3z"/><path d="m19 51h2v2h-2z"/><path d="m23 47h2v2h-2z"/><path d="m27 39h2v2h-2z"/><path d="m32 40h2v2h-2z"/><path d="m29 46h2v2h-2z"/><path d="m29 53h2v2h-2z"/><path d="m23 53h2v2h-2z"/></svg>