<?xml version="1.0"?>
<svg xmlns="http://www.w3.org/2000/svg" xmlns:xlink="http://www.w3.org/1999/xlink" xmlns:svgjs="http://svgjs.com/svgjs" version="1.1" width="512" height="512" x="0" y="0" viewBox="0 0 512 512" style="enable-background:new 0 0 512 512" xml:space="preserve" class=""><g><circle xmlns="http://www.w3.org/2000/svg" cx="256" cy="256" fill="#4a74c9" r="184" data-original="#2d85cc" style="" class=""/><circle xmlns="http://www.w3.org/2000/svg" cx="256" cy="256" fill="#a3d4f7" r="120" data-original="#a3d4f7" style="" class=""/><path xmlns="http://www.w3.org/2000/svg" d="m464 448a24 24 0 0 1 -24-24v-152h48v152a24 24 0 0 1 -24 24z" fill="#4a74c9" data-original="#b3113f" style="" class=""/><path xmlns="http://www.w3.org/2000/svg" d="m488 272h-80v-160a64 64 0 0 1 64-64h16z" fill="#e9eef2" data-original="#e9eef2" style=""/><path xmlns="http://www.w3.org/2000/svg" d="m56 176h32v240h-32z" fill="#e9eef2" data-original="#e9eef2" style=""/><path xmlns="http://www.w3.org/2000/svg" d="m48 272h48a0 0 0 0 1 0 0v152a24 24 0 0 1 -24 24 24 24 0 0 1 -24-24v-152a0 0 0 0 1 0 0z" fill="#4a74c9" data-original="#b3113f" style="" class=""/><path xmlns="http://www.w3.org/2000/svg" d="m127.93 144.51-.75-11.81-.3-4.7-5.13-80.51a8 8 0 0 0 -15.98.51c0 .18.01.34.02.51l5.08 79.79c-3.69 2.6-14.17 6.49-30.87 7.46v-87.76a8 8 0 0 0 -16 0v87.77c-15.74-.95-26.74-4.53-30.86-7.49l5.07-79.77c.01-.17.02-.33.02-.51a8 8 0 0 0 -15.98-.51l-5.13 80.51-.29 4.66-.76 11.89a37.252 37.252 0 0 0 37.19 39.45h37.48a37.256 37.256 0 0 0 37.19-39.49z" fill="#e9eef2" data-original="#e9eef2" style=""/><path xmlns="http://www.w3.org/2000/svg" d="m256 128a128 128 0 1 0 128 128 128.146 128.146 0 0 0 -128-128zm0 240a112 112 0 1 1 112-112 112.127 112.127 0 0 1 -112 112z" fill="#000000" data-original="#000000" style=""/><path xmlns="http://www.w3.org/2000/svg" d="m488 40h-16a72.081 72.081 0 0 0 -72 72v17a191.967 191.967 0 0 0 -273.967-14.3l-4.279-67.21a8 8 0 0 0 -15.967 1.018l5.08 79.789c-3.685 2.593-14.16 6.488-30.867 7.469v-87.766a8 8 0 0 0 -16 0v87.765c-15.753-.942-26.747-4.529-30.866-7.493l5.079-79.763a8 8 0 0 0 -15.967-1.018l-6.181 97.062a37.263 37.263 0 0 0 31.935 39.075v80.372a8 8 0 0 0 -8 8v152a32 32 0 0 0 64 0v-50.722a192.084 192.084 0 0 0 328-40.415v91.137a32 32 0 0 0 64 0v-376a8 8 0 0 0 -8-8zm-72 72a56.063 56.063 0 0 1 56-56h8v208h-64zm-383.965 33.584c8.97 3.69 22.165 6.416 39.965 6.416 14.619 0 29.3-2.045 39.963-6.378a21.25 21.25 0 0 1 -21.224 22.378h-37.478a21.256 21.256 0 0 1 -21.226-22.416zm31.965 38.416h16v80h-16zm24 240a16 16 0 0 1 -32 0v-144h32zm287.28-38.582a176.008 176.008 0 0 1 -271.28-40.686v-72.732a8 8 0 0 0 -8-8v-80.372a37.261 37.261 0 0 0 31.932-39.114l-.551-8.641a175.973 175.973 0 0 1 272.619 18.956v117.171a8 8 0 0 0 8 8h22.369a175.419 175.419 0 0 1 -55.089 105.418zm88.72 54.582a16.019 16.019 0 0 1 -16-16v-144h32v144a16.019 16.019 0 0 1 -16 16z" fill="#000000" data-original="#000000" style=""/></g></svg>
