<svg id="Capa_1" enable-background="new 0 0 512 512" height="512" viewBox="0 0 512 512" width="512" xmlns="http://www.w3.org/2000/svg"><g><path d="m128.951 40.012 23.378-.712c4.792-.146 6.959-6.06 3.396-9.268l-14.887-13.403c-6.496-5.849-2.359-16.629 6.383-16.629h59.438 100.69c39.656 0 71.803 32.147 71.803 71.803v101.391h-244.296v-83.342c0-6.41-1.51-12.73-4.409-18.448l-9.271-18.288c-2.991-5.898 1.166-12.902 7.775-13.104z" fill="#365e7d"/><path d="m307.348 0h-22.308c39.656 0 71.803 32.147 71.803 71.803v101.391h22.308v-101.391c0-39.656-32.147-71.803-71.803-71.803z" fill="#2b4d66"/><path d="m399.298 511.866h-286.596c-4.174 0-7.557-3.384-7.557-7.557v-144.816c0-55.31 44.838-100.148 100.148-100.148h101.414c55.31 0 100.148 44.838 100.148 100.148v144.816c0 4.174-3.383 7.557-7.557 7.557z" fill="#61a2f9"/><path d="m306.707 259.345h-28.349c55.31 0 100.148 44.838 100.148 100.148v152.373h20.792c4.174 0 7.557-3.384 7.557-7.557v-144.816c0-55.31-44.838-100.148-100.148-100.148z" fill="#5490f9"/><path d="m256 336.696-27.894 20.356c-2.605 1.901-6.305.749-7.371-2.294l-33.946-96.882 20.343-19.906 13.767 37.93z" fill="#f6f1f1"/><path d="m256 336.696 27.894 20.356c2.605 1.901 6.305.749 7.371-2.294l33.946-96.882-20.343-19.906-13.767 37.93z" fill="#f6f1f1"/><path d="m256 336.696 35.1-60.795h-70.2z" fill="#e2a770"/><path d="m256 294.008c-53.851 0-97.506-43.655-97.506-97.506v-84.432c0-6.956 1.884-13.407 5.139-18.921 10.147-17.188 33.333-21.056 49.187-8.93 29.094 22.252 60.882 29.418 96.049 17.658 21.047-7.038 43.603 7.38 44.598 29.55.025.561.038 1.125.038 1.691v63.384c.001 53.851-43.654 97.506-97.505 97.506z" fill="#f1d0a5"/><g><path d="m353.468 131.427c-.996-22.171-23.551-36.589-44.598-29.55-.183.061-.364.114-.547.174 12.167 4.29 21.552 15.255 22.186 29.376.025.561.038 1.125.038 1.691v63.384c0 49.967-37.586 91.148-86.027 96.83 3.766.442 7.595.676 11.479.676 53.851 0 97.506-43.655 97.506-97.506v-63.384c.001-.567-.011-1.13-.037-1.691z" fill="#f1b986"/></g><g><g><path d="m211.278 173.493c-4.266 0-7.724-3.458-7.724-7.724v-10.756c0-4.266 3.458-7.724 7.724-7.724s7.724 3.458 7.724 7.724v10.756c0 4.266-3.458 7.724-7.724 7.724z" fill="#2b4d66"/></g><g><path d="m300.721 173.493c-4.266 0-7.724-3.458-7.724-7.724v-10.756c0-4.266 3.458-7.724 7.724-7.724s7.724 3.458 7.724 7.724v10.756c.001 4.266-3.457 7.724-7.724 7.724z" fill="#2b4d66"/></g></g><g><path d="m256 248.004c-7.094 0-14.187-2.135-21.085-6.405-3.627-2.246-4.747-7.006-2.501-10.634s7.007-4.746 10.634-2.501c8.837 5.471 17.069 5.469 25.906 0 3.626-2.242 8.389-1.126 10.634 2.501 2.246 3.628 1.125 8.388-2.501 10.634-6.899 4.269-13.993 6.405-21.087 6.405z" fill="#dd636e"/></g><path d="m158.494 187.404h-15.634c-10.846 0-19.639-8.793-19.639-19.639 0-10.846 8.793-19.639 19.639-19.639h15.634z" fill="#e2a770"/><g><path d="m358.654 243.257h-66.338c-4.266 0-7.724-3.458-7.724-7.724s3.458-7.724 7.724-7.724h66.338c3.069 0 5.565-2.496 5.565-5.564v-37c0-4.266 3.458-7.724 7.724-7.724s7.724 3.458 7.724 7.724v37c.001 11.586-9.427 21.012-21.013 21.012z" fill="#2b4d66"/></g><path d="m293.453 247.381h-20.221c-5.225 0-9.461-4.236-9.461-9.461v-4.31c0-5.225 4.236-9.461 9.461-9.461h20.221c5.225 0 9.461 4.236 9.461 9.461v4.31c0 5.226-4.236 9.461-9.461 9.461z" fill="#365e7d"/><path d="m362.065 512h-212.13l-18.805-100.881c-1.827-9.803 5.696-18.858 15.668-18.858h218.404c9.972 0 17.495 9.055 15.668 18.858z" fill="#365e7d"/><path d="m365.202 392.26h-20.917c9.972 0 17.495 9.055 15.668 18.858l-18.805 100.882h20.917l18.805-100.882c1.827-9.803-5.696-18.858-15.668-18.858z" fill="#2b4d66"/><circle cx="256" cy="471.689" fill="#f6f1f1" r="21.947"/><path d="m256 449.742c-2.918 0-5.697.581-8.244 1.615 8.033 3.26 13.703 11.129 13.703 20.332s-5.671 17.071-13.703 20.332c2.547 1.034 5.326 1.615 8.244 1.615 12.121 0 21.947-9.826 21.947-21.947s-9.826-21.947-21.947-21.947z" fill="#dae4ea"/><path d="m356.596 392.26h-52.785v-16.782c0-4.989 4.045-9.034 9.034-9.034h34.716c4.989 0 9.034 4.045 9.034 9.034v16.782z" fill="#f6f1f1"/><path d="m353.506 195.543h18.437c14.528 0 26.306-11.777 26.306-26.306v-2.945c0-14.528-11.777-26.306-26.306-26.306h-18.437z" fill="#61a2f9"/><path d="m371.943 139.987h-18.437v.005c14.431.114 26.095 11.843 26.095 26.3v2.945c0 14.457-11.664 26.187-26.095 26.3v.005h18.437c14.528 0 26.306-11.777 26.306-26.306v-2.945c0-14.527-11.778-26.304-26.306-26.304z" fill="#5490f9"/></g></svg>